<svg width="38" height="26" viewBox="0 0 38 26" fill="none" xmlns="http://www.w3.org/2000/svg">
<path fill-rule="evenodd" clip-rule="evenodd" d="M26 0H0V13.8494H1.39627V1.39627H24.6037V5.98808H22.289V5.9981H22.2723C22.2101 6.12242 22.0796 6.40212 21.8807 6.83721C21.6818 7.27231 21.4363 7.80063 21.1441 8.4222C20.852 9.04376 20.5257 9.73058 20.1652 10.4827C19.8047 11.2348 19.441 11.9962 19.0743 12.7669C18.7076 13.5377 18.344 14.2866 17.9835 15.0139C17.623 15.7411 17.2998 16.3844 17.0138 16.9438L11.3265 5.9981H9.61103L17.0138 19.9832L23.3638 7.35074H25.998V7.33607H26V0ZM0 18.6291H0.00644348V18.6137H8.95444L2.56252 5.9981H4.33397L10.4128 18.4356L9.64833 19.9832L9.6366 19.9601V19.9764H1.39627V24.6037H24.6037V12.1158H26V26H0V18.6291ZM35.6203 26V0H37.0547V26H35.6203Z" fill="white"/>
<path fill-rule="evenodd" clip-rule="evenodd" d="M0 0H26V7.33607H25.998V7.35074H23.3638L17.0138 19.9832L9.61103 5.9981H11.3265L17.0138 16.9438C17.2998 16.3844 17.623 15.7411 17.9835 15.0139C18.344 14.2866 18.7076 13.5377 19.0743 12.7669C19.441 11.9962 19.8047 11.2348 20.1652 10.4827C20.5257 9.73058 20.852 9.04376 21.1441 8.4222C21.4363 7.80063 21.6818 7.27231 21.8807 6.83721C22.0796 6.40212 22.2101 6.12242 22.2723 5.9981H22.289V5.98808H24.6037V1.39627H1.39627V13.8494H0V0ZM0.00644348 18.6291H0V26H26V12.1158H24.6037V24.6037H1.39627V19.9764H9.6366V19.9601L9.64833 19.9832L10.4128 18.4356L4.33397 5.9981H2.56252L8.95444 18.6137H0.00644348V18.6291Z" fill="#DADADA"/>
</svg>
